<svg width="47" height="46" viewBox="0 0 47 46" fill="none" xmlns="http://www.w3.org/2000/svg">
<g id="Group">
<path id="Vector" d="M20.7778 6.4567C21.3631 6.70984 22.0427 6.44059 22.2959 5.85532C22.549 5.27005 22.2798 4.59039 21.6945 4.33725C21.1092 4.08411 20.4296 4.35336 20.1764 4.93863C19.9233 5.5239 20.1925 6.20356 20.7778 6.4567Z" fill="#7A69FE"/>
<path id="Vector_2" d="M33.8188 40.613C34.4041 40.8661 35.0837 40.5968 35.3369 40.0116C35.59 39.4263 35.3208 38.7466 34.7355 38.4935C34.1502 38.2404 33.4706 38.5096 33.2174 39.0949C32.9643 39.6802 33.2335 40.3598 33.8188 40.613Z" fill="#7A69FE"/>
<path id="Vector_3" d="M8.92038 21.3981C9.50565 21.6512 10.1853 21.382 10.4384 20.7967C10.6916 20.2115 10.4223 19.5318 9.83707 19.2787C9.2518 19.0255 8.57214 19.2948 8.319 19.88C8.06586 20.4653 8.33511 21.145 8.92038 21.3981Z" fill="#7A69FE"/>
<path id="Vector_4" d="M22.6692 41.643C21.567 41.1664 20.6948 40.2746 20.2335 39.1102L17.2345 31.5396L19.381 30.6893L22.3801 38.2599C22.6916 39.0462 23.3767 39.5854 24.214 39.6971C25.0514 39.8115 25.8566 39.4767 26.3674 38.8019L42.0395 18.1013C42.5304 17.452 42.6452 16.6135 42.3458 15.8575C42.0446 15.0995 41.3855 14.5642 40.5853 14.4307L14.9896 10.0764C14.1564 9.93491 13.3403 10.2424 12.8084 10.8992C12.2765 11.556 12.1439 12.4182 12.4559 13.2035L15.7899 21.6197L13.6433 22.47L10.3082 14.0534C9.68521 12.4807 9.94958 10.7584 11.0144 9.44523C12.0793 8.13206 13.7088 7.51726 15.3763 7.8007L40.9725 12.1539C42.5809 12.4256 43.8923 13.4947 44.4917 15.0057C45.0902 16.5187 44.8627 18.1965 43.8813 19.4942L28.2098 40.1963C27.1877 41.5444 25.5787 42.2134 23.9024 41.9852C23.4689 41.926 23.0549 41.8099 22.6681 41.6426L22.6692 41.643Z" fill="#191C2F"/>
<path id="Vector_5" d="M8.85619 31.7523C8.03596 31.3976 7.37203 30.728 7.02429 29.848C6.48471 28.4837 6.84178 26.9688 7.93508 25.9912L12.1254 22.2421C13.3507 21.1455 14.8457 20.3706 16.4479 19.9994L42.1692 14.0436C43.0264 13.8445 43.8882 14.2952 44.2129 15.1149C44.5383 15.9362 44.2209 16.8531 43.4569 17.2963L20.6365 30.5727C19.2136 31.399 17.5936 31.8581 15.9508 31.8986L10.3298 32.0362C9.80866 32.0485 9.30869 31.948 8.85619 31.7523ZM16.9683 22.2485C15.745 22.5321 14.6018 23.1245 13.6642 23.9631L9.47393 27.7122C8.9177 28.2101 9.10062 28.8226 9.17084 28.9976C9.24106 29.1726 9.52781 29.7458 10.272 29.7267L15.8929 29.5891C17.1494 29.5577 18.3877 29.2076 19.4748 28.5758L39.2013 17.1011L16.9683 22.2485Z" fill="#191C2F"/>
</g>
</svg>
